HIERARCHY
ROOT hip
{
	OFFSET 0.000000 0.000000 0.000000
	CHANNELS 6 Xposition Yposition Zposition Zrotation Yrotation Xrotation 
	JOINT lhipjoint
	{
		OFFSET 0.000000 0.000000 0.000000
		CHANNELS 3 Zrotation Yrotation Xrotation
		JOINT lfemur
		{
			OFFSET 1.363060 -1.794630 0.839290
			CHANNELS 3 Zrotation Yrotation Xrotation
			JOINT ltibia
			{
				OFFSET 2.448110 -6.726130 0.000000
				CHANNELS 3 Zrotation Yrotation Xrotation
				JOINT lfoot
				{
					OFFSET 2.562200 -7.039590 0.000000
					CHANNELS 3 Zrotation Yrotation Xrotation
					JOINT ltoes
					{
						OFFSET 0.157640 -0.433110 2.322550
						CHANNELS 3 Zrotation Yrotation Xrotation
						End Site
						{
							OFFSET 0.000000 0.000000 0.000000
						}
					}
				}
			}
		}
	}
	JOINT rhipjoint
	{
		OFFSET 0.000000 0.000000 0.000000
		CHANNELS 3 Zrotation Yrotation Xrotation
		JOINT rfemur
		{
			OFFSET -1.305520 -1.794630 0.839290
			CHANNELS 3 Zrotation Yrotation Xrotation
			JOINT rtibia
			{
				OFFSET -2.542530 -6.985550 0.000000
				CHANNELS 3 Zrotation Yrotation Xrotation
				JOINT rfoot
				{
					OFFSET -2.568260 -7.056230 0.000000
					CHANNELS 3 Zrotation Yrotation Xrotation
					JOINT rtoes
					{
						OFFSET -0.164730 -0.452590 2.363150
						CHANNELS 3 Zrotation Yrotation Xrotation
						End Site
						{
							OFFSET 0.000000 0.000000 0.000000
						}
					}
				}
			}
		}
	}
	JOINT lowerback
	{
		OFFSET 0.000000 0.000000 0.000000
		CHANNELS 3 Zrotation Yrotation Xrotation
		JOINT upperback
		{
			OFFSET 0.028270 2.035590 -0.193380
			CHANNELS 3 Zrotation Yrotation Xrotation
			JOINT thorax
			{
				OFFSET 0.056720 2.048850 -0.042750
				CHANNELS 3 Zrotation Yrotation Xrotation
				JOINT lowerneck
				{
					OFFSET 0.000000 0.000000 0.000000
					CHANNELS 3 Zrotation Yrotation Xrotation
					JOINT upperneck
					{
						OFFSET -0.054170 1.746240 0.172020
						CHANNELS 3 Zrotation Yrotation Xrotation
						JOINT head
						{
							OFFSET 0.104070 1.761360 -0.123970
							CHANNELS 3 Zrotation Yrotation Xrotation
							End Site
							{
								OFFSET 0.000000 0.000000 0.000000
							}
						}
					}
				}
				JOINT lclavicle
				{
					OFFSET 0.000000 0.000000 0.000000
					CHANNELS 3 Zrotation Yrotation Xrotation
					JOINT lhumerus
					{
						OFFSET 3.362410 1.200890 -0.311210
						CHANNELS 3 Zrotation Yrotation Xrotation
						JOINT lradius
						{
							OFFSET 4.983000 -0.000000 -0.000000
							CHANNELS 3 Zrotation Yrotation Xrotation
							JOINT lwrist
							{
								OFFSET 3.483560 -0.000000 -0.000000
								CHANNELS 3 Zrotation Yrotation Xrotation
								JOINT lhand
								{
									OFFSET 0.000000 0.000000 0.000000
									CHANNELS 3 Zrotation Yrotation Xrotation
									JOINT lfingers
									{
										OFFSET 0.715260 -0.000000 -0.000000
										CHANNELS 3 Zrotation Yrotation Xrotation
										End Site
										{
											OFFSET 0.000000 0.000000 0.000000
										}
									}
								}
								JOINT lthumb
								{
									OFFSET 0.000000 0.000000 0.000000
									CHANNELS 3 Zrotation Yrotation Xrotation
									End Site
									{
										OFFSET 0.000000 0.000000 0.000000
									}
								}
							}
						}
					}
				}
				JOINT rclavicle
				{
					OFFSET 0.000000 0.000000 0.000000
					CHANNELS 3 Zrotation Yrotation Xrotation
					JOINT rhumerus
					{
						OFFSET -3.136600 1.374050 -0.404650
						CHANNELS 3 Zrotation Yrotation Xrotation
						JOINT rradius
						{
							OFFSET -5.241900 -0.000000 -0.000000
							CHANNELS 3 Zrotation Yrotation Xrotation
							JOINT rwrist
							{
								OFFSET -3.444170 -0.000000 -0.000000
								CHANNELS 3 Zrotation Yrotation Xrotation
								JOINT rhand
								{
									OFFSET 0.000000 0.000000 0.000000
									CHANNELS 3 Zrotation Yrotation Xrotation
									JOINT rfingers
									{
										OFFSET -0.622530 -0.000000 -0.000000
										CHANNELS 3 Zrotation Yrotation Xrotation
										End Site
										{
											OFFSET 0.000000 0.000000 0.000000
										}
									}
								}
								JOINT rthumb
								{
									OFFSET 0.000000 0.000000 0.000000
									CHANNELS 3 Zrotation Yrotation Xrotation
									End Site
									{
										OFFSET 0.000000 0.000000 0.000000
									}
								}
							}
						}
					}
				}
			}
		}
	}
}
MOTION
Frames: 5
Frame Time: 0.008333
-5.129694 26.663462 13.686481 -177.215059 1.726207 168.049278 8.953511 1.857048 -2.013607 -20.939701 4.330147 -15.524197 12.306436 18.756610 65.690363 3.676452 4.466335 37.438265 0.833700 -5.824700 -16.276800 -12.277240 -3.574825 -3.213670 36.774884 1.426576 -9.325342 -9.466642 -16.818435 54.575957 -3.385209 -14.930926 41.298778 -0.605000 4.978900 -13.848300 3.444434 -1.445198 30.944141 -0.270606 1.500602 -0.387566 -5.261384 3.716582 1.473490 -2.343850 4.673609 2.823759 1.077661 5.092401 22.184869 0.062200 1.560800 4.448400 -7.749665 -1.778919 2.409308 -27.888755 10.886994 0.301173 90.273148 -63.795647 -70.955421 -0.103202 -0.620162 -20.073196 7.475546 -9.664272 -1.239800 -7.125000 0.000000 0.000000 -13.681600 20.892800 8.133900 4.693129 5.261639 7.716996 41.841024 -23.187480 21.198867 -22.426007 38.656293 -8.398173 -0.681131 -2.267994 12.960239 -33.261102 19.992187 -14.237200 7.125000 0.000000 0.000000 -2.537100 -3.287300 -2.389800 
-5.169199 26.236866 13.533336 -177.187422 2.026564 168.555530 8.920212 1.873097 -2.023159 -21.018817 4.419066 -15.889326 11.535979 18.435597 63.372025 3.491670 4.582383 36.598139 0.807500 -5.734700 -16.016500 -12.335732 -3.606228 -3.126189 37.003806 2.163718 -9.711742 -8.827288 -16.412939 52.395918 -3.304973 -14.478923 40.717147 -0.529200 4.661900 -12.946600 3.647457 -1.372822 30.849497 -0.267328 1.662434 -0.378835 -5.291563 3.824246 1.643212 -2.224565 4.548263 2.501359 1.061347 5.026765 22.015372 0.008000 1.579400 4.456100 -7.723358 -1.762328 2.375060 -27.728887 13.201672 -0.402623 92.180770 -64.348804 -72.852232 -0.111955 -0.634086 -20.925882 6.722236 -9.521153 -1.104000 -7.125000 0.000000 0.000000 -14.209500 21.057600 8.412700 4.765888 5.287621 7.762425 42.118957 -25.341986 21.807524 -22.987536 39.268380 -8.697016 -0.698223 -2.269404 13.750439 -33.700701 20.545678 -14.804500 7.125000 0.000000 0.000000 -2.714400 -2.524900 -2.595200 
-5.209301 25.803504 13.382282 -177.169807 2.383764 169.054157 8.892154 1.887983 -2.041790 -21.072025 4.594531 -16.250359 10.767929 18.078260 61.053424 3.312441 4.586596 35.647120 0.743700 -5.508800 -15.365600 -12.405194 -3.631264 -3.034743 37.229577 2.995286 -10.030190 -8.201546 -15.975844 50.190511 -3.167056 -14.089050 39.954090 -0.485300 4.467000 -12.394400 3.842272 -1.282002 30.804633 -0.267039 1.852597 -0.365866 -5.341358 3.954954 1.801657 -2.122336 4.413429 2.229726 1.043601 4.949273 21.827366 -0.042900 1.594700 4.420700 -7.686625 -1.749632 2.363955 -27.762889 15.555475 -1.216575 94.253533 -64.870555 -74.725577 -0.120401 -0.623314 -21.368657 6.380599 -9.411023 -1.040400 -7.125000 0.000000 0.000000 -14.452500 21.157900 8.532000 4.832388 5.326260 7.806926 42.567337 -27.728243 22.272589 -23.856963 40.120939 -9.161089 -0.682363 -2.303943 13.887276 -34.347567 20.912523 -15.413500 7.125000 0.000000 0.000000 -3.048100 -1.874200 -2.951000 
-5.249702 25.361983 13.230331 -177.123392 2.758127 169.585501 8.866824 1.904448 -2.063878 -21.087067 4.800614 -16.619688 10.003077 17.687149 58.733865 3.139474 4.475993 34.562685 0.637900 -5.110000 -14.222600 -12.489112 -3.651674 -2.938034 37.480378 3.885223 -10.325368 -7.600032 -15.512263 47.961425 -2.963546 -13.903409 39.066418 -0.443300 4.272200 -11.843600 4.039504 -1.191458 30.747679 -0.259663 2.042590 -0.354018 -5.363285 4.075485 1.928874 -2.006819 4.268161 2.044191 0.991385 4.860770 21.603156 -0.142700 1.619000 4.328300 -7.612323 -1.743617 2.386683 -28.163070 18.114372 -2.179391 96.854198 -65.350978 -76.807742 -0.125480 -0.578524 -21.401729 6.582374 -9.312961 -1.063700 -7.125000 0.000000 0.000000 -14.322700 21.205900 8.434300 4.907402 5.389622 7.847284 43.189724 -30.456217 22.541708 -25.323690 41.404751 -9.934302 -0.623613 -2.384028 13.401589 -35.108038 20.931558 -15.932400 7.125000 0.000000 0.000000 -3.520000 -1.527700 -3.431400 
-5.290799 24.900459 13.079873 -177.051394 3.121161 170.111614 8.845826 1.918883 -2.087897 -21.063828 5.014873 -17.032494 9.272079 17.277587 56.482870 2.970533 4.319056 33.388739 0.527200 -4.652800 -12.921000 -12.581596 -3.672424 -2.836668 37.731997 4.771698 -10.620626 -7.033800 -15.037045 45.778532 -2.740312 -13.797464 38.135796 -0.430300 4.209800 -11.667600 4.298287 -1.109263 30.744444 -0.250974 2.236793 -0.342285 -5.431464 4.210317 2.027338 -1.932320 4.129539 1.889961 0.977631 4.767096 21.368107 -0.205300 1.635000 4.207000 -7.514682 -1.763823 2.458051 -29.060305 20.900443 -3.314260 100.296698 -65.679603 -79.233525 -0.123030 -0.482078 -21.176679 7.245532 -9.107177 -1.145300 -7.125000 0.000000 0.000000 -13.891400 21.304500 8.132500 4.951924 5.479896 7.863101 44.201911 -33.409429 22.314241 -27.217920 42.948908 -10.966401 -0.533730 -2.502127 12.515396 -35.858042 20.604862 -16.277800 7.125000 0.000000 0.000000 -4.056400 -1.525600 -3.957000 
